{"glyphs":{":":{"x_min":0,"x_max":318,"ha":318,"o":""},"$":{"x_min":0,"x_max":463,"ha":463,"o":"m 298 -1 q 293 -3 293 -8 l 295 -53 q 295 -60 291 -64 q 287 -68 280 -68 l 171 -68 q 164 -68 160 -64 q 156 -60 156 -53 l 158 -2 q 158 2 153 5 q 92 24 57 70 q 22 117 22 180 l 22 211 q 22 218 26 222 q 30 226 37 226 l 193 226 q 200 226 204 222 q 208 218 208 211 l 208 189 q 208 173 216 163 q 224 153 236 153 q 248 153 256 162 q 264 171 264 185 q 264 202 248 218 q 232 235 181 271 q 131 306 98 335 q 66 364 42 408 q 18 452 18 509 q 18 578 54 628 q 91 678 155 698 q 160 700 160 704 l 158 763 q 158 770 162 774 q 166 778 173 778 l 280 778 q 287 778 291 774 q 295 770 295 763 l 293 706 q 293 702 298 700 q 367 683 406 632 q 445 581 445 509 l 445 487 q 445 480 441 476 q 437 472 430 472 l 275 472 q 268 472 264 476 q 260 480 260 487 l 260 513 q 260 528 252 538 q 244 547 231 547 q 218 547 210 537 q 203 527 203 510 q 203 490 219 472 q 235 453 283 418 q 347 371 380 342 q 412 313 430 276 q 449 240 449 191 q 449 116 408 66 q 368 16 298 -1 z"},"?":{"x_min":0,"x_max":483,"ha":483,"o":"m 135 251 l 135 264 q 135 303 148 332 q 161 361 180 379 q 198 397 227 419 q 256 441 270 457 q 283 473 283 494 q 283 515 272 527 q 262 539 244 539 q 222 539 210 525 q 198 511 198 488 l 198 484 q 198 470 183 470 l 25 477 q 10 477 10 488 q 10 553 40 604 q 70 654 124 682 q 179 710 249 710 q 317 710 368 684 q 418 658 446 612 q 473 565 473 503 q 473 459 460 428 q 446 396 428 377 q 409 358 379 334 q 349 311 335 294 q 321 277 321 252 l 321 251 q 321 244 317 240 q 313 236 306 236 l 150 236 q 143 236 139 240 q 135 244 135 251 z m 134 89 q 134 131 160 157 q 187 183 228 183 q 269 183 296 157 q 322 131 322 89 q 322 49 296 22 q 269 -5 228 -5 q 187 -5 160 22 q 134 48 134 89 z"},"<":{"x_min":0,"x_max":436,"ha":436,"o":"m 400 50 l 29 212 q 18 218 18 229 l 18 365 q 18 377 29 382 l 400 544 q 406 546 407 546 q 418 546 418 533 l 418 387 q 418 375 406 370 l 208 301 q 204 300 204 298 q 204 295 208 293 l 406 224 q 418 220 418 207 l 418 61 q 418 53 412 50 q 407 46 400 50 z"},"'":{"x_min":0,"x_max":204,"ha":204,"o":"m 26 474 l 9 684 l 9 686 q 9 700 24 700 l 180 700 q 188 700 192 696 q 196 691 195 684 l 176 474 q 175 460 161 460 l 41 460 q 27 460 26 474 z"},"=":{"x_min":0,"x_max":436,"ha":436,"o":""},"a":{"x_min":0,"x_max":467,"ha":467,"o":"m 449 360 l 449 15 q 449 8 445 4 q 441 0 434 0 l 276 0 q 269 0 265 4 q 261 8 261 15 l 261 36 q 261 40 259 40 q 257 41 254 38 q 220 -8 148 -8 q 12 -8 12 151 q 12 221 37 255 q 62 289 105 299 q 148 309 221 309 l 255 309 q 261 309 261 315 l 261 337 q 261 350 253 358 q 245 367 232 367 q 215 367 208 349 q 203 335 192 335 l 32 337 q 17 337 17 351 q 22 434 80 481 q 139 528 232 528 q 296 528 346 507 q 395 486 422 448 q 449 410 449 360 z m 261 154 l 261 181 q 261 187 255 187 l 235 187 q 221 187 212 178 q 204 168 204 155 q 204 142 212 134 q 219 127 229 127 q 241 127 251 134 q 261 142 261 154 z"},"L":{"x_min":0,"x_max":446,"ha":446,"o":"m 26 15 l 26 685 q 26 692 30 696 q 34 700 41 700 l 199 700 q 206 700 210 696 q 214 692 214 685 l 214 167 q 214 161 220 161 l 415 161 q 422 161 426 157 q 430 153 430 146 l 430 15 q 430 8 426 4 q 422 0 415 0 l 41 0 q 34 0 30 4 q 26 8 26 15 z"},"3":{"x_min":0,"x_max":454,"ha":454,"o":"m 437 685 l 437 551 q 437 540 430 532 l 327 424 q 325 422 326 420 q 326 417 330 417 q 376 413 406 372 q 437 332 437 276 l 437 172 q 437 120 410 79 q 384 38 337 15 q 290 -8 230 -8 q 167 -8 118 15 q 69 38 42 79 q 14 120 14 172 l 14 217 q 14 224 18 228 q 22 232 29 232 l 187 232 q 194 232 198 228 q 202 224 202 217 l 202 190 q 202 173 210 163 q 217 153 230 153 q 243 153 251 164 q 259 174 259 190 l 259 303 q 259 319 251 330 q 243 340 230 340 q 214 340 195 323 q 188 318 184 318 q 179 318 174 323 l 94 406 q 90 410 90 416 q 90 423 95 427 l 205 533 q 208 535 207 538 q 206 540 202 540 l 45 540 q 38 540 34 544 q 30 548 30 555 l 30 685 q 30 692 34 696 q 38 700 45 700 l 422 700 q 429 700 433 696 q 437 692 437 685 z"},";":{"x_min":0,"x_max":258,"ha":258,"o":"m 24 396 q 24 424 39 448 q 54 472 78 486 q 103 500 129 500 q 155 500 180 486 q 204 472 219 448 q 234 424 234 396 q 234 352 204 322 q 175 291 129 291 q 83 291 54 322 q 24 352 24 396 z m 33 -96 l 48 145 q 49 152 53 156 q 57 160 64 160 l 200 160 q 216 160 213 143 l 157 -98 q 154 -111 141 -111 l 47 -111 q 32 -111 33 -96 z"},"J":{"x_min":0,"x_max":470,"ha":470,"o":"m 8 192 l 8 250 q 8 257 12 261 q 16 265 23 265 l 181 265 q 188 265 192 261 q 196 257 196 250 l 196 190 q 196 174 204 164 q 212 153 225 153 q 239 153 248 164 q 256 174 256 190 l 256 685 q 256 692 260 696 q 264 700 271 700 l 429 700 q 436 700 440 696 q 444 692 444 685 l 444 192 q 444 133 416 88 q 389 42 340 17 q 290 -8 225 -8 q 161 -8 112 17 q 62 42 35 88 q 8 133 8 192 z"},"V":{"x_min":0,"x_max":521,"ha":521,"o":"m 155 13 l 15 684 l 15 688 q 15 700 29 700 l 201 700 q 216 700 217 686 l 262 332 q 262 329 265 329 q 268 329 268 332 l 309 686 q 310 700 325 700 l 492 700 q 509 700 506 684 l 364 13 q 361 0 347 0 l 172 0 q 158 0 155 13 z"},"\"":{"x_min":0,"x_max":420,"ha":420,"o":"m 27 474 l 9 684 l 9 686 q 9 700 24 700 l 170 700 q 178 700 182 696 q 186 691 185 684 l 167 474 q 166 460 152 460 l 42 460 q 28 460 27 474 z m 253 474 l 235 684 l 235 686 q 235 700 250 700 l 396 700 q 404 700 408 696 q 412 691 411 684 l 393 474 q 392 460 378 460 l 268 460 q 254 460 253 474 z"},"7":{"x_min":0,"x_max":435,"ha":435,"o":"m 71 17 l 229 532 q 230 539 224 539 l 163 539 q 157 539 157 533 l 157 505 q 157 498 153 494 q 149 490 142 490 l 21 490 q 14 490 10 494 q 6 498 6 505 l 7 685 q 7 692 11 696 q 15 700 22 700 l 414 700 q 421 700 425 696 q 429 692 429 685 l 429 548 q 429 539 426 530 l 266 12 q 263 0 249 0 l 84 0 q 76 0 72 4 q 69 9 71 17 z"},"S":{"x_min":0,"x_max":463,"ha":463,"o":"m 22 180 l 22 211 q 22 218 26 222 q 30 226 37 226 l 193 226 q 200 226 204 222 q 208 218 208 211 l 208 189 q 208 173 216 163 q 224 153 236 153 q 248 153 256 162 q 264 171 264 185 q 264 202 248 218 q 232 235 181 271 q 131 306 98 335 q 66 364 42 408 q 18 452 18 509 q 18 568 44 613 q 71 658 120 683 q 168 708 231 708 q 295 708 344 683 q 392 658 418 613 q 445 568 445 509 l 445 487 q 445 480 441 476 q 437 472 430 472 l 275 472 q 268 472 264 476 q 260 480 260 487 l 260 513 q 260 528 252 538 q 244 547 231 547 q 218 547 210 537 q 203 527 203 510 q 203 490 219 472 q 235 453 283 418 q 347 371 380 342 q 412 313 430 276 q 449 240 449 191 q 449 100 390 46 q 331 -8 235 -8 q 171 -8 123 16 q 75 40 48 82 q 22 125 22 180 z"},"}":{"x_min":0,"x_max":392,"ha":392,"o":"m 45 -164 q 38 -164 34 -160 q 30 -156 30 -149 l 30 -18 q 30 -11 34 -7 q 38 -3 45 -3 l 56 -3 q 73 -3 86 14 q 100 31 100 53 l 100 195 q 100 295 160 325 q 165 329 160 333 q 100 363 100 462 l 100 601 q 100 623 86 640 q 73 657 56 657 l 45 657 q 38 657 34 661 q 30 665 30 672 l 30 803 q 30 810 34 814 q 38 818 45 818 l 148 818 q 212 818 250 782 q 288 747 288 688 l 288 491 q 288 412 347 403 q 362 402 362 388 l 362 270 q 362 257 348 255 q 288 246 288 166 l 288 -34 q 288 -93 250 -128 q 212 -164 148 -164 z"},"Z":{"x_min":0,"x_max":424,"ha":424,"o":"m 12 15 l 12 151 q 12 160 17 170 l 208 532 q 211 539 204 539 l 27 539 q 20 539 16 543 q 12 547 12 554 l 12 685 q 12 692 16 696 q 20 700 27 700 l 395 700 q 402 700 406 696 q 410 692 410 685 l 410 549 q 410 540 405 530 l 212 168 q 209 161 216 161 l 395 161 q 402 161 406 157 q 410 153 410 146 l 410 15 q 410 8 406 4 q 402 0 395 0 l 27 0 q 20 0 16 4 q 12 8 12 15 z"},"x":{"x_min":0,"x_max":482,"ha":482,"o":"m 12 10 l 14 18 l 123 256 q 125 260 123 264 l 14 502 l 12 510 q 12 520 25 520 l 197 520 q 210 520 214 508 l 237 441 q 239 437 242 437 q 244 437 245 441 l 268 508 q 272 520 285 520 l 457 520 q 470 520 470 510 l 468 502 l 359 264 q 357 260 359 256 l 468 18 l 470 10 q 470 0 457 0 l 285 0 q 272 0 268 12 l 245 83 q 244 88 242 88 q 239 88 237 83 l 214 12 q 210 0 197 0 l 25 0 q 12 0 12 10 z"},")":{"x_min":0,"x_max":371,"ha":371,"o":"m 243 747 q 300 669 334 570 q 368 470 368 336 q 368 94 243 -74 q 235 -83 225 -83 l 70 -83 q 62 -83 58 -78 q 55 -73 59 -66 q 104 27 131 120 q 158 212 158 336 q 158 461 131 552 q 104 644 59 739 q 57 745 57 746 q 57 756 70 756 l 225 756 q 235 756 243 747 z"},"&":{"x_min":0,"x_max":643,"ha":643,"o":"m 618 9 q 618 5 614 2 q 611 0 605 0 l 434 0 q 424 0 416 9 l 402 25 q 399 28 393 27 q 320 -10 231 -10 q 132 -10 75 37 q 18 84 18 176 q 18 288 112 357 q 117 362 113 366 q 74 418 62 446 q 49 475 49 511 q 49 569 75 614 q 101 659 149 684 q 197 708 259 708 q 323 708 374 682 q 425 657 454 611 q 482 565 482 505 q 482 444 453 400 q 424 356 374 321 q 370 317 371 314 l 374 311 l 410 267 q 412 265 414 265 q 417 265 418 267 q 449 307 462 336 q 466 346 473 346 q 477 346 482 343 l 598 277 q 610 269 605 257 q 568 185 526 134 q 523 130 526 126 l 614 18 q 618 14 618 9 z m 237 504 q 237 491 240 482 q 244 473 258 454 q 263 449 267 453 q 294 477 294 503 q 294 519 286 528 q 277 538 265 538 q 252 538 244 528 q 237 519 237 504 z m 281 155 q 288 157 283 163 l 277 170 q 245 208 230 224 q 225 229 222 225 q 207 210 207 193 q 207 176 220 162 q 234 147 261 150 q 266 151 281 155 z"},"_":{"x_min":0,"x_max":451,"ha":451,"o":"m 8 15 l 8 125 q 8 132 12 136 q 16 140 23 140 l 428 140 q 435 140 439 136 q 443 132 443 125 l 443 15 q 443 8 439 4 q 435 0 428 0 l 23 0 q 16 0 12 4 q 8 8 8 15 z"},"v":{"x_min":0,"x_max":474,"ha":474,"o":"m 130 13 l 12 503 l 12 507 q 12 520 25 520 l 198 520 q 212 520 213 506 l 234 288 q 235 287 237 287 q 239 287 240 288 l 261 506 q 262 520 276 520 l 449 518 q 456 518 460 514 q 464 509 462 501 l 344 13 q 341 0 328 0 l 146 0 q 133 0 130 13 z"},"O":{"x_min":0,"x_max":484,"ha":484,"o":"m 20 206 l 20 494 q 20 592 80 650 q 141 708 242 708 q 343 708 404 650 q 464 592 464 494 l 464 206 q 464 108 404 50 q 343 -8 242 -8 q 141 -8 80 50 q 20 108 20 206 z m 276 198 l 276 502 q 276 523 267 535 q 258 547 242 547 q 226 547 217 535 q 208 523 208 502 l 208 198 q 208 177 217 165 q 226 153 242 153 q 258 153 267 165 q 276 177 276 198 z"},"(":{"x_min":0,"x_max":371,"ha":371,"o":"m 128 -74 q 71 4 37 104 q 3 203 3 337 q 3 579 128 747 q 136 756 146 756 l 301 756 q 309 756 312 751 q 316 746 312 739 q 267 646 240 554 q 213 461 213 337 q 213 212 240 120 q 267 29 312 -66 q 314 -72 314 -73 q 314 -83 301 -83 l 146 -83 q 136 -83 128 -74 z"},"C":{"x_min":0,"x_max":476,"ha":476,"o":"m 20 205 l 20 497 q 20 594 80 651 q 139 708 239 708 q 338 708 398 651 q 458 594 458 497 l 458 492 q 458 485 454 480 q 450 476 443 476 l 285 471 q 270 471 270 485 l 270 510 q 270 527 262 537 q 253 547 239 547 q 225 547 216 537 q 208 527 208 510 l 208 189 q 208 172 216 162 q 225 153 239 153 q 253 153 262 162 q 270 172 270 189 l 270 216 q 270 230 285 230 l 443 225 q 450 225 454 220 q 458 216 458 209 l 458 205 q 458 141 430 92 q 403 44 354 18 q 304 -8 239 -8 q 140 -8 80 50 q 20 108 20 205 z"},"W":{"x_min":0,"x_max":720,"ha":720,"o":"m 151 13 l 15 684 l 15 688 q 15 700 29 700 l 192 700 q 207 700 208 686 l 242 381 q 242 379 245 378 q 248 378 248 381 l 285 686 q 286 700 301 700 l 423 700 q 438 700 439 686 l 481 380 q 481 378 484 378 q 488 377 488 380 l 517 686 q 518 700 532 700 l 691 700 q 708 700 705 684 l 577 13 q 574 0 560 0 l 422 0 q 407 0 406 14 l 364 335 q 364 338 360 338 q 357 338 357 335 l 323 14 q 322 0 307 0 l 168 0 q 154 0 151 13 z"},"A":{"x_min":0,"x_max":531,"ha":531,"o":"m 325 14 l 314 89 q 314 91 312 93 q 310 95 307 95 l 219 95 q 216 95 214 93 q 212 91 212 89 l 202 14 q 201 0 186 0 l 29 0 q 13 0 16 16 l 158 687 q 161 700 175 700 l 357 700 q 371 700 374 687 l 516 16 l 516 12 q 516 0 502 0 l 341 0 q 326 0 325 14 z m 239 239 l 286 239 q 293 239 291 245 l 264 425 q 263 429 261 429 q 259 429 258 425 l 234 245 q 234 239 239 239 z"},"f":{"x_min":0,"x_max":311,"ha":311,"o":"m 299 505 l 299 405 q 299 398 295 394 q 291 390 284 390 l 247 390 q 241 390 241 384 l 241 15 q 241 8 237 4 q 233 0 226 0 l 68 0 q 61 0 57 4 q 53 8 53 15 l 53 384 q 53 390 47 390 l 27 390 q 20 390 16 394 q 12 398 12 405 l 12 505 q 12 512 16 516 q 20 520 27 520 l 47 520 q 53 520 53 526 l 53 556 q 53 638 98 670 q 144 701 237 701 q 264 701 278 700 q 281 700 283 696 q 285 692 285 685 l 285 590 q 285 575 278 575 q 260 573 250 563 q 241 553 241 539 l 241 526 q 241 520 247 520 l 284 520 q 291 520 295 516 q 299 512 299 505 z"},"Q":{"x_min":0,"x_max":473,"ha":473,"o":"m 453 485 l 453 215 q 453 143 422 90 q 391 37 335 12 q 330 11 330 5 l 330 -72 q 330 -79 326 -83 q 322 -87 315 -87 l 157 -87 q 150 -87 146 -83 q 142 -79 142 -72 l 142 5 q 142 11 137 12 q 82 38 51 91 q 20 144 20 215 l 20 485 q 20 551 47 602 q 74 652 123 680 q 172 708 236 708 q 301 708 350 680 q 399 652 426 602 q 453 551 453 485 z m 208 195 q 208 176 216 164 q 223 153 236 153 q 249 153 257 164 q 265 176 265 195 l 265 505 q 265 524 257 536 q 249 547 236 547 q 223 547 216 536 q 208 524 208 505 z"},"w":{"x_min":0,"x_max":653,"ha":653,"o":"m 119 13 l 12 504 l 12 508 q 12 520 25 520 l 175 520 q 190 520 191 506 l 214 285 q 214 282 217 282 q 220 282 220 285 l 245 506 q 246 520 261 520 l 394 520 q 409 520 410 506 l 437 284 q 437 282 440 282 q 443 282 443 284 l 466 506 q 467 520 481 520 l 628 518 q 644 518 641 502 l 536 13 q 533 0 519 0 l 366 0 q 351 0 350 14 l 326 186 q 325 189 323 189 q 321 189 320 186 l 298 14 q 297 0 282 0 l 136 0 q 122 0 119 13 z"},"-":{"x_min":0,"x_max":343,"ha":343,"o":"m 18 220 l 18 350 q 18 357 22 361 q 26 365 33 365 l 310 365 q 317 365 321 361 q 325 357 325 350 l 325 220 q 325 213 321 209 q 317 205 310 205 l 33 205 q 26 205 22 209 q 18 213 18 220 z"},"E":{"x_min":0,"x_max":444,"ha":444,"o":"m 411 539 l 220 539 q 214 539 214 533 l 214 437 q 214 431 220 431 l 319 431 q 326 431 330 427 q 334 423 334 416 l 334 285 q 334 278 330 274 q 326 270 319 270 l 220 270 q 214 270 214 264 l 214 167 q 214 161 220 161 l 411 161 q 418 161 422 157 q 426 153 426 146 l 426 15 q 426 8 422 4 q 418 0 411 0 l 41 0 q 34 0 30 4 q 26 8 26 15 l 26 685 q 26 692 30 696 q 34 700 41 700 l 411 700 q 418 700 422 696 q 426 692 426 685 l 426 554 q 426 547 422 543 q 418 539 411 539 z"},"s":{"x_min":0,"x_max":438,"ha":438,"o":"m 12 156 l 12 159 q 12 166 16 170 q 20 174 27 174 l 177 174 q 184 174 188 170 q 192 167 192 161 q 192 146 201 138 q 210 130 221 130 q 230 130 235 136 q 240 141 240 149 q 240 164 225 172 q 210 179 175 189 q 163 192 147 197 q 94 214 56 252 q 19 291 19 358 q 19 436 73 482 q 127 528 215 528 q 307 528 362 478 q 417 428 417 346 q 417 342 413 339 q 409 336 402 336 l 257 336 q 250 336 246 340 q 242 344 242 351 l 242 357 q 242 369 236 376 q 229 383 220 383 q 210 383 204 375 q 199 367 199 357 q 199 337 218 326 q 238 315 269 306 q 341 285 385 252 q 429 219 429 151 q 429 77 372 34 q 316 -8 223 -8 q 127 -8 70 37 q 12 82 12 156 z"},">":{"x_min":0,"x_max":436,"ha":436,"o":"m 29 48 q 18 48 18 61 l 18 207 q 18 220 30 224 l 228 293 q 232 295 232 298 q 232 300 228 301 l 30 370 q 18 375 18 387 l 18 533 q 18 541 24 544 q 29 548 36 544 l 407 382 q 418 377 418 365 l 418 229 q 418 218 407 212 l 36 50 q 30 48 29 48 z"},"l":{"x_min":0,"x_max":228,"ha":228,"o":"m 20 15 l 20 685 q 20 692 24 696 q 28 700 35 700 l 193 700 q 200 700 204 696 q 208 692 208 685 l 208 15 q 208 8 204 4 q 200 0 193 0 l 35 0 q 28 0 24 4 q 20 8 20 15 z"},"8":{"x_min":0,"x_max":452,"ha":452,"o":"m 370 357 q 402 337 419 298 q 436 256 436 207 q 436 160 419 117 q 396 60 344 26 q 293 -8 226 -8 q 158 -8 106 26 q 55 59 32 117 q 16 158 16 207 q 16 259 32 298 q 47 334 80 356 q 86 361 81 364 q 48 389 32 427 q 16 466 16 513 q 16 562 32 600 q 55 653 107 684 q 159 715 226 715 q 292 715 344 686 q 396 656 419 600 q 436 560 436 513 q 436 468 419 427 q 404 391 370 365 q 365 362 370 357 z m 226 429 q 237 429 244 440 q 251 451 251 469 l 251 515 q 251 532 244 543 q 237 554 226 554 q 215 554 208 543 q 201 532 201 515 l 201 469 q 201 451 208 440 q 215 429 226 429 z m 226 288 q 215 288 208 277 q 201 266 201 248 l 201 192 q 201 175 208 164 q 215 153 226 153 q 237 153 244 164 q 251 175 251 192 l 251 248 q 251 266 244 277 q 237 288 226 288 z"},"\\":{"x_min":0,"x_max":470,"ha":470,"o":"m 457 10 q 457 0 444 0 l 287 0 q 274 0 270 12 l 26 683 q 25 686 25 690 q 25 700 38 700 l 195 700 q 208 700 212 688 l 456 17 q 457 14 457 10 z"},"e":{"x_min":0,"x_max":455,"ha":455,"o":"m 424 213 l 212 213 q 206 213 206 207 l 206 185 q 206 171 212 162 q 219 153 229 153 q 239 153 244 160 q 250 167 252 178 q 257 192 269 191 l 422 181 q 437 179 436 165 q 431 77 380 34 q 330 -8 229 -8 q 129 -8 74 38 q 18 85 18 170 l 18 350 q 18 431 74 480 q 130 528 229 528 q 328 528 384 480 q 439 431 439 350 l 439 228 q 439 221 435 217 q 431 213 424 213 z m 206 335 l 206 311 q 206 305 212 305 l 245 305 q 251 305 251 311 l 251 335 q 251 349 245 358 q 239 367 229 367 q 219 367 212 358 q 206 349 206 335 z"},"b":{"x_min":0,"x_max":460,"ha":460,"o":"m 442 350 l 442 170 q 442 84 410 38 q 377 -8 305 -8 q 247 -8 217 36 q 215 40 212 40 q 210 39 210 35 l 210 15 q 210 8 206 4 q 202 0 195 0 l 37 0 q 30 0 26 4 q 22 8 22 15 l 22 685 q 22 692 26 696 q 30 700 37 700 l 195 700 q 202 700 206 696 q 210 692 210 685 l 210 485 q 210 483 212 483 q 216 483 224 493 q 253 528 305 528 q 376 528 409 484 q 442 439 442 350 z m 233 367 q 223 367 216 358 q 210 349 210 335 l 210 185 q 210 171 216 162 q 223 153 233 153 q 243 153 248 162 q 254 171 254 185 l 254 335 q 254 349 248 358 q 243 367 233 367 z"},"%":{"x_min":0,"x_max":756,"ha":756,"o":"m 26 540 q 26 586 48 624 q 71 663 109 686 q 147 708 192 708 q 237 708 275 686 q 313 663 335 624 q 357 586 357 540 q 357 494 335 455 q 313 416 275 394 q 237 371 192 371 q 147 371 109 394 q 71 416 48 455 q 26 494 26 540 z m 129 10 l 131 18 l 492 689 q 498 700 510 700 l 610 700 q 622 700 622 690 l 620 682 l 259 11 q 254 0 241 0 l 141 0 q 129 0 129 10 z m 261 540 q 261 571 241 592 q 221 614 192 614 q 163 614 142 592 q 122 571 122 540 q 122 509 142 487 q 163 465 192 465 q 221 465 241 486 q 261 508 261 540 z m 399 161 q 399 207 422 246 q 444 284 482 306 q 520 329 565 329 q 610 329 648 306 q 686 284 708 246 q 730 207 730 161 q 730 115 708 76 q 686 37 648 14 q 610 -8 565 -8 q 520 -8 482 14 q 444 37 422 76 q 399 115 399 161 z m 634 161 q 634 192 614 214 q 594 235 565 235 q 536 235 516 214 q 495 192 495 161 q 495 130 516 108 q 536 86 565 86 q 594 86 614 108 q 634 129 634 161 z"},"m":{"x_min":0,"x_max":694,"ha":694,"o":"m 674 348 l 674 15 q 674 8 670 4 q 666 0 659 0 l 501 0 q 494 0 490 4 q 486 8 486 15 l 486 335 q 486 367 465 367 q 442 367 442 335 l 442 15 q 442 8 438 4 q 434 0 427 0 l 269 0 q 262 0 258 4 q 254 8 254 15 l 254 335 q 254 367 233 367 q 210 367 210 335 l 210 15 q 210 8 206 4 q 202 0 195 0 l 37 0 q 30 0 26 4 q 22 8 22 15 l 22 505 q 22 512 26 516 q 30 520 37 520 l 195 520 q 210 520 210 506 l 210 502 q 210 498 212 497 q 214 496 217 499 q 250 528 300 528 q 380 528 414 471 q 416 469 417 469 q 421 469 427 478 q 464 528 532 528 q 674 528 674 348 z"},"#":{"x_min":0,"x_max":634,"ha":634,"o":"m 599 387 l 542 387 q 539 387 537 385 q 535 383 535 381 l 527 324 q 526 318 532 318 l 563 318 q 570 318 574 314 q 578 310 578 303 l 578 173 q 578 166 574 162 q 570 158 563 158 l 508 158 q 505 158 503 156 q 501 154 501 152 l 486 48 q 485 34 470 34 l 312 34 q 296 34 298 50 l 313 152 q 315 158 308 158 l 268 158 q 265 158 263 156 q 261 154 261 152 l 246 48 q 245 34 230 34 l 72 34 q 56 34 58 50 l 73 152 q 75 158 68 158 l 35 158 q 28 158 24 162 q 20 166 20 173 l 20 303 q 20 310 24 314 q 28 318 35 318 l 92 318 q 95 318 97 320 q 99 322 99 324 l 107 381 q 109 387 102 387 l 71 387 q 64 387 60 391 q 56 395 56 402 l 56 533 q 56 540 60 544 q 64 548 71 548 l 126 548 q 129 548 131 550 q 133 552 133 554 l 148 658 q 149 672 164 672 l 322 672 q 338 672 336 656 l 321 554 q 320 548 326 548 l 366 548 q 369 548 371 550 q 373 552 373 554 l 388 658 q 389 672 404 672 l 562 672 q 578 672 576 656 l 561 554 q 560 548 566 548 l 599 548 q 606 548 610 544 q 614 540 614 533 l 614 402 q 614 395 610 391 q 606 387 599 387 z m 339 324 l 347 381 q 349 387 342 387 l 302 387 q 299 387 297 385 q 295 383 295 381 l 287 324 q 286 318 292 318 l 332 318 q 335 318 337 320 q 339 322 339 324 z"},",":{"x_min":0,"x_max":233,"ha":233,"o":"m 25 -96 l 40 145 q 41 152 45 156 q 49 160 56 160 l 192 160 q 208 160 205 143 l 149 -98 q 146 -111 133 -111 l 39 -111 q 24 -111 25 -96 z"},"n":{"x_min":0,"x_max":462,"ha":462,"o":"m 442 348 l 442 15 q 442 8 438 4 q 434 0 427 0 l 269 0 q 262 0 258 4 q 254 8 254 15 l 254 335 q 254 367 233 367 q 210 367 210 335 l 210 15 q 210 8 206 4 q 202 0 195 0 l 37 0 q 30 0 26 4 q 22 8 22 15 l 22 505 q 22 512 26 516 q 30 520 37 520 l 195 520 q 202 520 206 516 q 210 512 210 505 l 210 490 q 210 488 212 488 q 217 488 224 497 q 253 528 300 528 q 442 528 442 348 z"},"h":{"x_min":0,"x_max":462,"ha":462,"o":"m 442 348 l 442 15 q 442 8 438 4 q 434 0 427 0 l 269 0 q 262 0 258 4 q 254 8 254 15 l 254 335 q 254 367 233 367 q 210 367 210 335 l 210 15 q 210 8 206 4 q 202 0 195 0 l 37 0 q 30 0 26 4 q 22 8 22 15 l 22 685 q 22 692 26 696 q 30 700 37 700 l 195 700 q 202 700 206 696 q 210 692 210 685 l 210 490 q 210 488 212 488 q 217 488 224 497 q 253 528 300 528 q 442 528 442 348 z"},"z":{"x_min":0,"x_max":381,"ha":381,"o":"m 8 15 l 8 160 q 8 169 14 178 l 135 343 q 137 346 136 348 q 135 350 131 350 l 30 350 q 23 350 19 354 q 15 358 15 365 l 15 505 q 15 512 19 516 q 23 520 30 520 l 349 520 q 356 520 360 516 q 364 512 364 505 l 364 360 q 364 351 358 342 l 228 177 q 226 174 226 172 q 227 170 231 170 l 358 170 q 365 170 369 166 q 373 162 373 155 l 373 15 q 373 8 369 4 q 365 0 358 0 l 23 0 q 16 0 12 4 q 8 8 8 15 z"},"B":{"x_min":0,"x_max":484,"ha":484,"o":"m 252 0 l 41 0 q 34 0 30 4 q 26 8 26 15 l 26 685 q 26 692 30 696 q 34 700 41 700 l 222 700 q 331 700 392 651 q 454 602 454 503 q 454 411 397 366 q 392 362 395 359 q 468 303 468 197 q 468 102 407 51 q 346 0 252 0 z m 214 533 l 214 433 q 214 427 220 427 l 225 427 q 270 427 270 483 q 270 539 225 539 l 220 539 q 214 539 214 533 z m 280 225 q 280 256 268 274 q 257 293 238 293 l 220 293 q 214 293 214 287 l 214 167 q 214 161 220 161 l 237 161 q 256 161 268 178 q 280 194 280 225 z"},"K":{"x_min":0,"x_max":517,"ha":517,"o":"m 26 15 l 26 685 q 26 692 30 696 q 34 700 41 700 l 199 700 q 206 700 210 696 q 214 692 214 685 l 214 487 q 214 483 216 482 q 219 482 221 486 l 305 688 q 310 700 323 700 l 488 700 q 496 700 500 695 q 504 690 500 682 l 359 387 q 358 383 359 379 l 504 17 q 505 14 505 10 q 505 0 492 0 l 326 0 q 313 0 308 12 l 231 217 q 230 222 228 222 q 225 222 223 217 l 215 197 q 214 195 214 189 l 214 15 q 214 8 210 4 q 206 0 199 0 l 41 0 q 34 0 30 4 q 26 8 26 15 z"},"R":{"x_min":0,"x_max":490,"ha":490,"o":"m 283 13 l 222 264 q 220 269 218 269 q 214 269 214 263 l 214 15 q 214 8 210 4 q 206 0 199 0 l 41 0 q 34 0 30 4 q 26 8 26 15 l 26 685 q 26 692 30 696 q 34 700 41 700 l 266 700 q 326 700 372 672 q 419 643 445 592 q 471 542 471 477 q 471 422 452 378 q 433 335 397 308 q 393 305 394 300 l 475 17 q 476 15 476 12 q 476 0 462 0 l 299 0 q 286 0 283 13 z m 220 539 q 214 539 214 533 l 214 418 q 214 412 220 412 l 233 412 q 255 412 269 428 q 283 445 283 475 q 283 506 270 522 q 256 539 233 539 z"},"T":{"x_min":0,"x_max":499,"ha":499,"o":"m 481 685 l 481 554 q 481 547 477 543 q 473 539 466 539 l 348 539 q 342 539 342 533 l 342 15 q 342 8 338 4 q 334 0 327 0 l 169 0 q 162 0 158 4 q 154 8 154 15 l 154 533 q 154 539 148 539 l 33 539 q 26 539 22 543 q 18 547 18 554 l 18 685 q 18 692 22 696 q 26 700 33 700 l 466 700 q 473 700 477 696 q 481 692 481 685 z"},"P":{"x_min":0,"x_max":481,"ha":481,"o":"m 469 475 q 469 411 444 362 q 420 313 376 286 q 332 260 274 260 l 218 260 q 212 260 212 254 l 212 15 q 212 8 208 4 q 204 0 197 0 l 39 0 q 32 0 28 4 q 24 8 24 15 l 24 685 q 24 692 28 696 q 32 700 39 700 l 264 700 q 324 700 370 672 q 417 643 443 592 q 469 541 469 475 z m 281 471 q 281 504 268 522 q 254 539 231 539 l 218 539 q 212 539 212 533 l 212 411 q 212 405 218 405 l 231 405 q 254 405 268 422 q 281 438 281 471 z"},"|":{"x_min":0,"x_max":214,"ha":214,"o":"m 13 -65 l 13 745 q 13 752 17 756 q 21 760 28 760 l 186 760 q 193 760 197 756 q 201 752 201 745 l 201 -65 q 201 -72 197 -76 q 193 -80 186 -80 l 28 -80 q 21 -80 17 -76 q 13 -72 13 -65 z"},"t":{"x_min":0,"x_max":307,"ha":307,"o":"m 280 390 l 238 390 q 232 390 232 384 l 232 192 q 232 174 240 168 q 248 161 263 162 l 265 162 q 272 162 276 158 q 280 154 280 147 l 280 15 q 280 8 276 4 q 272 0 265 0 l 217 0 q 134 0 93 24 q 52 47 52 116 l 52 384 q 52 390 46 390 l 19 390 q 12 390 8 394 q 4 398 4 405 l 4 505 q 4 512 8 516 q 12 520 19 520 l 46 520 q 52 520 52 526 l 52 633 q 52 640 56 644 q 60 648 67 648 l 217 648 q 224 648 228 644 q 232 640 232 633 l 232 526 q 232 520 238 520 l 280 520 q 287 520 291 516 q 295 512 295 505 l 295 405 q 295 398 291 394 q 287 390 280 390 z"},"M":{"x_min":0,"x_max":566,"ha":566,"o":"m 374 700 l 530 700 q 537 700 541 696 q 545 692 545 685 l 545 15 q 545 8 541 4 q 537 0 530 0 l 372 0 q 365 0 361 4 q 357 8 357 15 l 357 422 q 357 426 354 427 q 352 428 350 424 l 293 328 l 283 310 l 282 310 l 216 424 q 214 428 212 428 q 209 427 209 422 l 209 15 q 209 8 205 4 q 201 0 194 0 l 36 0 q 29 0 25 4 q 21 8 21 15 l 21 685 q 21 692 25 696 q 29 700 36 700 l 192 700 q 205 700 210 689 l 280 561 q 282 558 284 558 q 287 557 288 561 l 356 689 q 362 700 374 700 z"},"g":{"x_min":0,"x_max":460,"ha":460,"o":"m 265 520 l 423 520 q 430 520 434 516 q 438 512 438 505 l 438 34 q 438 -41 416 -94 q 395 -147 337 -178 q 279 -210 174 -210 q 135 -210 113 -208 q 98 -208 98 -193 l 98 -60 q 98 -44 114 -46 l 139 -47 q 195 -47 218 -32 q 242 -16 248 14 q 248 17 242 19 q 235 21 232 19 q 204 -8 155 -8 q 83 -8 50 38 q 18 84 18 170 l 18 350 q 18 439 51 484 q 84 528 155 528 q 213 528 243 484 q 245 480 248 480 q 250 481 250 485 l 250 505 q 250 512 254 516 q 258 520 265 520 z m 250 185 l 250 335 q 250 349 244 358 q 237 367 227 367 q 217 367 212 358 q 206 349 206 335 l 206 185 q 206 171 212 162 q 217 153 227 153 q 237 153 244 162 q 250 171 250 185 z"},"j":{"x_min":0,"x_max":228,"ha":228,"o":"m 22 649 q 22 691 48 717 q 75 743 116 743 q 157 743 184 717 q 210 691 210 649 q 210 609 184 582 q 157 555 116 555 q 75 555 48 582 q 22 608 22 649 z m -74 -186 l -74 -57 q -74 -42 -58 -42 q -11 -44 6 -26 q 22 -9 22 29 l 22 505 q 22 512 26 516 q 30 520 37 520 l 195 520 q 202 520 206 516 q 210 512 210 505 l 210 29 q 210 -60 196 -106 q 182 -152 124 -178 q 67 -204 -58 -201 q -74 -201 -74 -186 z"},"i":{"x_min":0,"x_max":226,"ha":226,"o":"m 18 649 q 18 691 44 717 q 71 743 112 743 q 153 743 180 717 q 206 691 206 649 q 206 609 180 582 q 153 555 112 555 q 71 555 44 582 q 18 608 18 649 z m 20 15 l 20 505 q 20 512 24 516 q 28 520 35 520 l 193 520 q 200 520 204 516 q 208 512 208 505 l 208 15 q 208 8 204 4 q 200 0 193 0 l 35 0 q 28 0 24 4 q 20 8 20 15 z"},"y":{"x_min":0,"x_max":459,"ha":459,"o":"m 28 -184 l 28 -60 q 28 -45 37 -45 q 89 -45 112 -38 q 136 -32 136 -10 q 136 -4 135 0 l 10 503 l 10 507 q 10 520 23 520 l 193 520 q 207 520 208 506 l 227 288 q 228 289 230 289 q 232 289 233 288 l 250 506 q 251 520 265 520 l 436 518 q 443 518 447 514 q 451 509 449 501 l 323 -2 q 301 -79 275 -119 q 249 -159 195 -179 q 141 -199 40 -199 l 34 -199 q 28 -199 28 -184 z"},"@":{"x_min":0,"x_max":760,"ha":760,"o":"m 742 381 q 742 357 739 333 q 726 230 670 173 q 613 116 529 116 q 458 116 420 156 q 415 161 411 155 q 385 118 328 118 q 267 118 242 155 q 216 192 216 235 q 216 249 217 261 q 218 273 219 282 l 222 310 q 225 344 229 362 q 241 431 270 458 q 298 486 351 486 q 383 486 400 464 q 402 460 404 460 q 407 461 407 465 l 407 465 q 408 479 423 479 l 517 479 q 533 479 531 463 l 509 311 q 507 295 507 290 q 507 261 518 248 q 530 235 547 235 q 572 235 588 264 q 603 294 608 337 q 610 361 610 371 q 610 429 586 473 q 561 517 517 541 q 473 565 418 565 q 351 565 294 530 q 236 496 198 435 q 161 374 151 297 q 148 275 148 255 q 148 186 176 140 q 205 95 248 74 q 291 52 335 52 q 365 52 388 62 q 411 71 436 88 q 440 91 445 91 q 452 91 457 83 l 499 9 q 501 3 501 0 q 501 -8 494 -12 q 407 -66 313 -66 q 232 -66 164 -28 q 97 10 58 80 q 18 151 18 245 q 18 263 22 301 q 35 411 93 498 q 151 584 240 632 q 328 681 429 681 q 518 681 590 643 q 661 605 702 537 q 742 469 742 381 z m 377 242 l 384 302 l 391 355 l 391 360 q 391 368 386 374 q 382 379 375 379 q 366 379 360 372 q 354 366 352 355 l 344 295 l 337 242 l 337 239 q 337 229 342 223 q 346 217 355 217 q 364 217 370 224 q 375 231 377 242 z"},".":{"x_min":0,"x_max":246,"ha":246,"o":""},"p":{"x_min":0,"x_max":462,"ha":462,"o":"m 444 350 l 444 170 q 444 81 411 36 q 378 -8 307 -8 q 248 -8 219 37 q 217 41 214 40 q 212 39 212 35 l 212 -165 q 212 -172 208 -176 q 204 -180 197 -180 l 39 -180 q 32 -180 28 -176 q 24 -172 24 -165 l 24 505 q 24 512 28 516 q 32 520 39 520 l 197 520 q 204 520 208 516 q 212 512 212 505 l 212 485 q 212 483 214 483 q 218 483 226 493 q 255 528 307 528 q 379 528 412 482 q 444 436 444 350 z m 235 367 q 225 367 218 358 q 212 349 212 335 l 212 185 q 212 171 218 162 q 225 153 235 153 q 245 153 250 162 q 256 171 256 185 l 256 335 q 256 349 250 358 q 245 367 235 367 z"},"X":{"x_min":0,"x_max":503,"ha":503,"o":"m 19 17 l 150 346 q 152 350 150 354 l 19 683 q 18 686 18 690 q 18 700 31 700 l 191 700 q 197 700 202 696 q 207 693 208 687 l 248 550 q 250 546 252 546 q 255 546 256 550 l 296 687 q 297 693 302 696 q 307 700 313 700 l 472 700 q 480 700 484 696 q 487 691 484 683 l 353 354 q 351 350 353 346 l 484 17 q 485 14 485 10 q 485 0 472 0 l 314 0 q 308 0 303 4 q 298 7 297 13 l 256 149 q 255 153 252 153 q 250 153 248 149 l 207 13 q 206 7 201 4 q 196 0 190 0 l 31 0 q 23 0 20 4 q 16 9 19 17 z"},"*":{"x_min":0,"x_max":362,"ha":362,"o":"m 130 412 l 131 468 q 131 476 124 472 l 73 443 q 69 440 65 440 q 58 440 53 449 l 15 515 q 13 518 13 523 q 13 530 21 535 l 79 567 q 86 571 79 575 l 21 605 q 13 610 13 617 q 13 619 15 625 l 53 694 q 58 702 65 702 q 70 702 73 700 l 124 669 q 127 667 129 669 q 131 671 131 674 l 130 730 q 130 737 134 741 q 138 745 145 745 l 218 745 q 225 745 229 741 q 233 737 233 730 l 232 674 q 232 671 234 670 q 236 668 239 669 l 289 700 q 292 702 297 702 q 304 702 309 694 l 347 625 q 349 622 349 617 q 349 610 341 605 l 285 575 q 278 571 285 567 l 341 535 q 353 527 347 515 l 309 446 q 304 437 297 437 q 293 437 289 440 l 239 471 q 232 475 232 467 l 233 412 q 233 405 229 401 q 225 397 218 397 l 145 397 q 138 397 134 401 q 130 405 130 412 z"},"Y":{"x_min":0,"x_max":508,"ha":508,"o":"m 159 17 l 159 247 q 159 253 158 255 l 18 683 q 17 685 17 689 q 17 700 30 700 l 196 700 q 210 700 213 687 l 250 490 q 251 486 254 486 q 257 486 258 490 l 295 687 q 298 700 312 700 l 478 700 q 486 700 489 696 q 492 691 490 683 l 348 255 q 347 253 347 247 l 347 17 q 347 10 343 6 q 339 2 332 2 l 174 2 q 167 2 163 6 q 159 10 159 17 z"},"c":{"x_min":0,"x_max":455,"ha":455,"o":"m 18 170 l 18 350 q 18 431 74 480 q 130 528 229 528 q 328 528 384 480 q 439 431 439 350 l 439 328 q 439 321 435 316 q 431 312 424 312 l 266 307 q 251 307 251 321 l 251 335 q 251 349 245 358 q 239 367 229 367 q 219 367 212 358 q 206 349 206 335 l 206 185 q 206 171 212 162 q 219 153 229 153 q 239 153 245 162 q 251 171 251 185 l 251 200 q 251 207 255 211 q 259 215 266 215 l 424 213 q 431 213 435 209 q 439 205 439 198 l 439 170 q 439 85 384 38 q 329 -8 229 -8 q 129 -8 74 38 q 18 85 18 170 z"},"!":{"x_min":0,"x_max":298,"ha":298,"o":"m 72 263 l 54 685 q 54 700 68 700 l 226 700 q 240 700 240 685 l 222 263 q 222 256 218 252 q 213 248 206 248 l 88 248 q 81 248 76 252 q 72 256 72 263 z m 55 94 q 55 136 82 162 q 108 188 149 188 q 190 188 216 162 q 243 136 243 94 q 243 54 216 27 q 190 0 149 0 q 108 0 82 26 q 55 53 55 94 z"},"/":{"x_min":0,"x_max":470,"ha":470,"o":"m 14 17 l 258 688 q 262 700 275 700 l 432 700 q 440 700 444 696 q 447 691 444 683 l 200 12 q 196 0 183 0 l 26 0 q 18 0 14 4 q 11 9 14 17 z"},"[":{"x_min":0,"x_max":373,"ha":373,"o":"m 30 -149 l 30 803 q 30 810 34 814 q 38 818 45 818 l 278 818 q 285 818 289 814 q 293 810 293 803 l 293 672 q 293 665 289 661 q 285 657 278 657 l 224 657 q 218 657 218 651 l 218 3 q 218 -3 224 -3 l 278 -3 q 285 -3 289 -7 q 293 -11 293 -18 l 293 -149 q 293 -156 289 -160 q 285 -164 278 -164 l 45 -164 q 38 -164 34 -160 q 30 -156 30 -149 z"},"6":{"x_min":0,"x_max":460,"ha":460,"o":"m 446 260 l 446 171 q 446 87 388 40 q 330 -8 232 -8 q 141 -8 84 35 q 28 78 21 164 q 19 188 19 204 l 17 524 q 16 609 74 658 q 133 708 229 708 q 322 708 380 658 q 437 608 437 524 l 437 485 q 437 478 433 474 q 429 470 422 470 l 264 470 q 257 470 253 474 q 249 478 249 485 l 249 511 q 249 525 242 534 q 236 543 229 543 q 219 543 212 534 q 206 525 206 511 l 206 419 q 206 415 208 414 q 210 413 213 415 q 229 429 250 436 q 270 444 292 444 q 363 444 404 394 q 446 345 446 260 z m 231 312 q 220 312 213 303 q 206 294 206 280 l 206 184 q 206 170 213 161 q 220 152 231 152 q 242 152 248 161 q 255 170 255 184 l 255 280 q 255 294 248 303 q 242 312 231 312 z"},"r":{"x_min":0,"x_max":346,"ha":346,"o":"m 334 517 q 343 512 341 498 l 316 341 q 315 333 311 331 q 307 329 299 331 q 289 334 276 334 q 255 334 241 327 q 227 320 218 304 q 210 289 210 273 l 210 16 q 210 9 206 5 q 202 1 195 1 l 37 1 q 30 1 26 5 q 22 9 22 16 l 22 505 q 22 512 26 516 q 30 520 37 520 l 195 520 q 202 520 206 516 q 210 512 210 505 l 210 484 q 210 480 212 479 q 214 478 216 482 q 241 527 293 527 q 317 527 334 517 z"},"2":{"x_min":0,"x_max":463,"ha":463,"o":"m 252 161 l 438 161 q 445 161 449 157 q 453 153 453 146 l 453 15 q 453 8 449 4 q 445 0 438 0 l 33 0 q 26 0 22 4 q 18 8 18 15 l 18 150 q 18 161 25 169 l 86 237 q 136 292 162 323 q 189 354 210 385 q 257 453 257 505 q 257 547 231 547 q 219 547 212 538 q 204 528 204 512 l 204 470 q 204 463 200 459 q 196 455 189 455 l 29 455 q 22 455 18 459 q 14 463 14 470 l 14 520 q 18 576 48 618 q 77 661 127 684 q 177 708 240 708 q 301 708 348 682 q 395 657 421 610 q 447 564 447 504 q 447 448 431 404 q 415 361 378 312 q 345 268 300 222 q 256 175 249 168 q 246 166 247 164 q 248 161 252 161 z"},"{":{"x_min":0,"x_max":392,"ha":392,"o":"m 104 -34 l 104 166 q 104 246 44 255 q 30 257 30 270 l 30 388 q 30 402 45 403 q 104 412 104 491 l 104 688 q 104 747 142 782 q 180 818 244 818 l 347 818 q 354 818 358 814 q 362 810 362 803 l 362 672 q 362 665 358 661 q 354 657 347 657 l 336 657 q 319 657 306 640 q 292 623 292 601 l 292 462 q 292 363 232 333 q 227 329 232 325 q 292 295 292 195 l 292 53 q 292 31 306 14 q 319 -3 336 -3 l 347 -3 q 354 -3 358 -7 q 362 -11 362 -18 l 362 -149 q 362 -156 358 -160 q 354 -164 347 -164 l 244 -164 q 180 -164 142 -128 q 104 -93 104 -34 z"},"9":{"x_min":0,"x_max":456,"ha":456,"o":"m 227 -8 q 134 -8 76 42 q 19 92 19 176 l 19 215 q 19 222 23 226 q 27 230 34 230 l 192 230 q 199 230 203 226 q 207 222 207 215 l 207 189 q 207 175 214 166 q 220 157 227 157 q 237 157 244 166 q 250 175 250 189 l 250 281 q 250 285 248 286 q 246 287 243 285 q 208 256 164 256 q 93 256 52 306 q 10 355 10 440 l 10 529 q 10 613 68 660 q 126 708 224 708 q 315 708 372 665 q 428 622 435 536 q 437 512 437 496 l 439 176 q 440 91 382 42 q 323 -8 227 -8 z m 250 420 l 250 516 q 250 530 243 539 q 236 548 225 548 q 214 548 208 539 q 201 530 201 516 l 201 420 q 201 406 208 397 q 214 388 225 388 q 236 388 243 397 q 250 406 250 420 z"}," ":{"x_min":0,"x_max":200,"ha":200,"o":""},"I":{"x_min":0,"x_max":240,"ha":240,"o":"m 26 15 l 26 685 q 26 692 30 696 q 34 700 41 700 l 199 700 q 206 700 210 696 q 214 692 214 685 l 214 15 q 214 8 210 4 q 206 0 199 0 l 41 0 q 34 0 30 4 q 26 8 26 15 z"},"H":{"x_min":0,"x_max":486,"ha":486,"o":"m 287 700 l 445 700 q 452 700 456 696 q 460 692 460 685 l 460 15 q 460 8 456 4 q 452 0 445 0 l 287 0 q 280 0 276 4 q 272 8 272 15 l 272 264 q 272 270 266 270 l 220 270 q 214 270 214 264 l 214 15 q 214 8 210 4 q 206 0 199 0 l 41 0 q 34 0 30 4 q 26 8 26 15 l 26 685 q 26 692 30 696 q 34 700 41 700 l 199 700 q 206 700 210 696 q 214 692 214 685 l 214 437 q 214 431 220 431 l 266 431 q 272 431 272 437 l 272 685 q 272 692 276 696 q 280 700 287 700 z"},"4":{"x_min":0,"x_max":530,"ha":530,"o":"m 522 322 l 522 182 q 522 175 518 171 q 514 167 507 167 l 477 167 q 471 167 471 161 l 471 15 q 471 8 467 4 q 463 0 456 0 l 298 0 q 291 0 287 4 q 283 8 283 15 l 283 161 q 283 167 277 167 l 23 167 q 16 167 12 171 q 8 175 8 182 l 8 293 q 8 302 11 311 l 132 688 q 136 700 149 700 l 318 700 q 326 700 330 696 q 333 691 331 683 l 228 344 q 227 337 233 337 l 277 337 q 283 337 283 343 l 283 411 q 283 418 287 422 q 291 426 298 426 l 456 426 q 463 426 467 422 q 471 418 471 411 l 471 343 q 471 337 477 337 l 507 337 q 514 337 518 333 q 522 329 522 322 z"},"~":{"x_min":0,"x_max":509,"ha":509,"o":"m 262 205 q 259 207 254 210 q 250 212 245 216 q 227 227 216 232 q 204 238 192 238 q 177 238 162 229 q 146 220 135 206 q 129 199 124 199 q 119 199 115 202 l 29 253 q 18 260 22 273 q 39 327 81 363 q 123 399 174 399 q 195 399 213 392 q 231 386 251 374 q 259 369 274 360 q 288 352 298 348 q 309 343 319 343 q 347 343 367 374 q 373 382 380 382 q 383 382 388 379 l 479 324 q 491 316 485 304 q 459 252 419 217 q 379 182 333 182 q 313 182 296 188 q 280 194 262 205 z"},"D":{"x_min":0,"x_max":483,"ha":483,"o":"m 26 15 l 26 685 q 26 692 30 696 q 34 700 41 700 l 238 700 q 304 700 354 675 q 405 650 433 604 q 461 559 461 500 l 461 200 q 461 141 433 96 q 405 50 354 25 q 304 0 238 0 l 41 0 q 34 0 30 4 q 26 8 26 15 z m 220 161 l 234 162 q 250 163 261 177 q 272 191 273 213 l 273 488 q 273 511 262 525 q 251 539 233 539 l 220 539 q 214 539 214 533 l 214 167 q 214 161 220 161 z"},"^":{"x_min":0,"x_max":440,"ha":440,"o":"m 23 308 l 137 687 q 138 693 143 696 q 148 700 154 700 l 283 700 q 297 700 300 688 l 417 308 q 418 306 418 303 q 418 291 404 291 l 279 291 q 265 291 262 304 l 224 481 q 223 486 220 486 q 217 486 216 481 l 178 304 q 175 291 161 291 l 36 291 q 28 291 24 296 q 21 300 23 308 z"},"0":{"x_min":0,"x_max":459,"ha":459,"o":"m 16 206 l 16 494 q 16 559 42 608 q 69 658 118 685 q 166 712 229 712 q 293 712 342 685 q 390 658 416 608 q 443 559 443 494 l 443 206 q 443 141 416 92 q 390 42 342 15 q 293 -12 229 -12 q 166 -12 118 15 q 69 42 42 92 q 16 141 16 206 z m 255 195 l 255 505 q 255 526 248 538 q 241 551 229 551 q 218 551 211 538 q 204 526 204 505 l 204 195 q 204 174 211 162 q 218 149 229 149 q 241 149 248 162 q 255 174 255 195 z"},"F":{"x_min":0,"x_max":432,"ha":432,"o":"m 411 539 l 220 539 q 214 539 214 533 l 214 437 q 214 431 220 431 l 319 431 q 326 431 330 427 q 334 423 334 416 l 334 285 q 334 278 330 274 q 326 270 319 270 l 220 270 q 214 270 214 264 l 214 15 q 214 8 210 4 q 206 0 199 0 l 41 0 q 34 0 30 4 q 26 8 26 15 l 26 685 q 26 692 30 696 q 34 700 41 700 l 411 700 q 418 700 422 696 q 426 692 426 685 l 426 554 q 426 547 422 543 q 418 539 411 539 z"},"`":{"x_min":0,"x_max":246,"ha":246,"o":""},"k":{"x_min":0,"x_max":479,"ha":479,"o":"m 22 15 l 22 685 q 22 692 26 696 q 30 700 37 700 l 195 700 q 202 700 206 696 q 210 692 210 685 l 210 407 q 210 402 213 402 q 216 402 217 406 l 263 509 q 267 520 280 520 l 442 520 q 448 520 452 518 q 455 515 455 511 q 455 507 452 502 l 340 319 q 338 316 340 311 l 462 17 q 463 15 463 11 q 463 0 450 0 l 288 0 q 275 0 271 12 l 225 154 q 224 159 222 159 q 220 159 218 154 l 212 140 l 210 132 l 210 15 q 210 8 206 4 q 202 0 195 0 l 37 0 q 30 0 26 4 q 22 8 22 15 z"},"u":{"x_min":0,"x_max":462,"ha":462,"o":"m 267 520 l 425 520 q 432 520 436 516 q 440 512 440 505 l 440 15 q 440 8 436 4 q 432 0 425 0 l 267 0 q 260 0 256 4 q 252 8 252 15 l 252 19 q 252 23 250 24 q 248 25 245 22 q 230 4 210 -2 q 189 -8 162 -8 q 102 -8 61 29 q 20 66 20 144 l 20 505 q 20 512 24 516 q 28 520 35 520 l 193 520 q 200 520 204 516 q 208 512 208 505 l 208 185 q 208 153 229 153 q 252 153 252 185 l 252 505 q 252 512 256 516 q 260 520 267 520 z"},"]":{"x_min":0,"x_max":373,"ha":373,"o":"m 328 -164 l 95 -164 q 88 -164 84 -160 q 80 -156 80 -149 l 80 -18 q 80 -11 84 -7 q 88 -3 95 -3 l 149 -3 q 155 -3 155 3 l 155 651 q 155 657 149 657 l 95 657 q 88 657 84 661 q 80 665 80 672 l 80 803 q 80 810 84 814 q 88 818 95 818 l 328 818 q 335 818 339 814 q 343 810 343 803 l 343 -149 q 343 -156 339 -160 q 335 -164 328 -164 z"},"U":{"x_min":0,"x_max":481,"ha":481,"o":"m 24 208 l 24 685 q 24 692 28 696 q 32 700 39 700 l 197 700 q 204 700 208 696 q 212 692 212 685 l 212 190 q 212 173 220 163 q 228 153 241 153 q 254 153 262 163 q 269 173 269 190 l 269 685 q 269 692 273 696 q 277 700 284 700 l 442 700 q 449 700 453 696 q 457 692 457 685 l 457 208 q 457 144 430 95 q 403 46 354 19 q 305 -8 241 -8 q 176 -8 127 19 q 78 46 51 95 q 24 144 24 208 z"},"o":{"x_min":0,"x_max":461,"ha":461,"o":"m 18 170 l 18 350 q 18 431 74 480 q 131 528 231 528 q 331 528 387 480 q 443 431 443 350 l 443 170 q 443 85 388 38 q 333 -8 231 -8 q 129 -8 74 38 q 18 85 18 170 z m 255 185 l 255 335 q 255 349 248 358 q 242 367 231 367 q 220 367 213 358 q 206 349 206 335 l 206 185 q 206 171 213 162 q 220 153 231 153 q 242 153 248 162 q 255 171 255 185 z"},"N":{"x_min":0,"x_max":528,"ha":528,"o":"m 331 700 l 487 700 q 494 700 498 696 q 502 692 502 685 l 502 15 q 502 8 498 4 q 494 0 487 0 l 309 0 q 296 0 293 13 l 217 316 q 216 319 213 319 q 210 319 210 315 l 212 15 q 212 8 208 4 q 204 0 197 0 l 41 0 q 34 0 30 4 q 26 8 26 15 l 26 685 q 26 692 30 696 q 34 700 41 700 l 217 700 q 230 700 233 687 l 310 383 q 311 379 314 379 q 317 379 317 383 l 316 685 q 316 692 320 696 q 324 700 331 700 z"},"+":{"x_min":0,"x_max":436,"ha":436,"o":"m 418 361 l 418 251 q 418 244 414 240 q 410 236 403 236 l 294 236 q 288 236 288 230 l 288 121 q 288 114 284 110 q 280 106 273 106 l 163 106 q 156 106 152 110 q 148 114 148 121 l 148 230 q 148 236 142 236 l 33 236 q 26 236 22 240 q 18 244 18 251 l 18 361 q 18 368 22 372 q 26 376 33 376 l 142 376 q 148 376 148 382 l 148 491 q 148 498 152 502 q 156 506 163 506 l 273 506 q 280 506 284 502 q 288 498 288 491 l 288 382 q 288 376 294 376 l 403 376 q 410 376 414 372 q 418 368 418 361 z"},"G":{"x_min":0,"x_max":478,"ha":478,"o":"m 20 196 l 20 505 q 20 598 80 653 q 140 708 239 708 q 304 708 354 683 q 403 658 430 612 q 458 565 458 503 l 458 470 q 458 463 454 459 q 450 455 443 455 l 285 455 q 278 455 274 459 q 270 463 270 470 l 270 505 q 270 524 262 536 q 253 547 239 547 q 225 547 216 536 q 208 524 208 505 l 208 195 q 208 176 216 164 q 225 153 239 153 q 253 153 262 164 q 270 176 270 195 l 270 244 q 270 250 264 250 l 256 250 q 249 250 245 254 q 241 258 241 265 l 241 380 q 241 387 245 391 q 249 395 256 395 l 443 395 q 450 395 454 391 q 458 387 458 380 l 458 196 q 458 135 430 88 q 403 42 354 17 q 304 -8 239 -8 q 140 -8 80 48 q 20 103 20 196 z"},"q":{"x_min":0,"x_max":462,"ha":462,"o":"m 265 520 l 423 520 q 430 520 434 516 q 438 512 438 505 l 438 -165 q 438 -172 434 -176 q 430 -180 423 -180 l 265 -180 q 258 -180 254 -176 q 250 -172 250 -165 l 250 35 q 250 39 248 40 q 245 41 243 37 q 214 -8 155 -8 q 84 -8 51 36 q 18 81 18 170 l 18 350 q 18 436 50 482 q 83 528 155 528 q 213 528 243 484 q 245 480 248 480 q 250 481 250 485 l 250 505 q 250 512 254 516 q 258 520 265 520 z m 250 185 l 250 335 q 250 349 244 358 q 237 367 227 367 q 217 367 212 358 q 206 349 206 335 l 206 185 q 206 171 212 162 q 217 153 227 153 q 237 153 244 162 q 250 171 250 185 z"},"d":{"x_min":0,"x_max":460,"ha":460,"o":"m 265 700 l 423 700 q 430 700 434 696 q 438 692 438 685 l 438 15 q 438 8 434 4 q 430 0 423 0 l 265 0 q 258 0 254 4 q 250 8 250 15 l 250 35 q 250 39 248 40 q 245 40 243 36 q 213 -8 155 -8 q 83 -8 50 38 q 18 84 18 170 l 18 350 q 18 439 51 484 q 84 528 155 528 q 214 528 243 483 q 245 479 248 480 q 250 481 250 485 l 250 685 q 250 692 254 696 q 258 700 265 700 z m 250 185 l 250 335 q 250 349 244 358 q 237 367 227 367 q 217 367 212 358 q 206 349 206 335 l 206 185 q 206 171 212 162 q 217 153 227 153 q 237 153 244 162 q 250 171 250 185 z"},"1":{"x_min":0,"x_max":303,"ha":303,"o":"m 104 700 l 268 700 q 275 700 279 696 q 283 692 283 685 l 283 15 q 283 8 279 4 q 275 0 268 0 l 110 0 q 103 0 99 4 q 95 8 95 15 l 95 523 q 95 529 89 529 l 23 529 q 16 529 12 533 q 8 537 8 544 l 8 660 q 8 673 20 677 l 86 697 q 95 700 104 700 z"},"5":{"x_min":0,"x_max":459,"ha":459,"o":"m 445 260 l 445 171 q 445 87 387 40 q 329 -8 231 -8 q 141 -8 86 35 q 30 78 20 164 l 18 189 q 18 204 33 204 l 191 204 q 206 204 207 192 q 207 183 208 180 q 212 152 231 152 q 243 152 250 161 q 257 170 257 184 l 257 250 q 257 264 250 273 q 243 282 231 282 q 215 282 208 270 q 204 263 201 260 q 198 257 192 257 l 32 257 q 25 257 21 261 q 17 265 17 272 l 17 685 q 17 692 21 696 q 25 700 32 700 l 428 700 q 435 700 439 696 q 443 692 443 685 l 443 554 q 443 547 439 543 q 435 539 428 539 l 211 539 q 205 539 205 533 l 205 419 q 205 415 207 414 q 209 413 212 415 q 228 429 248 436 q 269 444 291 444 q 362 444 404 394 q 445 345 445 260 z"}}}
